<mxfile host="app.diagrams.net" modified="2024-05-20T15:53:19.616Z" agent="Mozilla/5.0 (Windows NT 10.0; Win64; x64) AppleWebKit/537.36 (KHTML, like Gecko) Chrome/125.0.0.0 Safari/537.36" version="24.4.4" etag="Ir56GC5kdV0TXSMaK3-7" type="github">
  <diagram name="Page-1" id="urGf2nEbREeZ7-rx8RBb">
    <mxGraphModel>
      <root>
        <mxCell id="0" />
        <mxCell id="1" parent="0" />
      </root>
    </mxGraphModel>
  </diagram>
</mxfile>
